<?xml-stylesheet type="text/css" href="../../css/SvgControl.css"?>

<svg id="article3" xmlns="http://www.w3.org/2000/svg" viewBox="0 0 566 680"><defs><style>.cls-1{fill:#fff;}.cls-2{fill:#fffbfc;}.cls-3{fill:#dbdbdb;}.cls-4{fill:#1b8149;}.cls-5{fill:#99c0e7;}.cls-6{fill:#342754;}.cls-7{fill:#132238;}.cls-8{fill:#2b643d;}.cls-9{fill:#553a85;}.cls-10{fill:#c8f0f7;}.cls-11{fill:#e49f99;}.cls-12{fill:#f6adba;}.cls-13{fill:#0a0a3e;}.cls-14{fill:#563b85;}.cls-15{fill:#f19226;}.cls-16{fill:#f7aebc;}.cls-17{fill:#9ab7f1;}.cls-18{fill:#010101;}</style></defs><rect id="art3bg" class="cls-10" x="-8.44" y="-8.33" width="583.11" height="696.89"/><g id="backRec1"><g><path class="cls-1" d="M296.44,287.22v11.11c0,4.91-3.98,8.89-8.88,8.89H61.39c-4.91,0-8.89-3.98-8.89-8.89v-11.11h243.94Z"/><path class="cls-7" d="M296.44,99.25v187.97H52.5V99.25c0-9.8,7.95-17.75,17.75-17.75h208.44c9.81,0,17.75,7.95,17.75,17.75Z"/></g></g><g id="backRec2"><g><path class="cls-1" d="M548.44,477v12.33c0,4.73-3.55,8.56-7.93,8.56h-201.86c-4.38,0-7.93-3.83-7.93-8.56v-12.33h217.72Z"/><path class="cls-17" d="M548.44,297.7v179.3h-217.72v-179.3c0-9.43,7.1-17.09,15.84-17.09h186.03c8.76,0,15.84,7.65,15.84,17.09Z"/></g></g><path id="notebook" class="cls-14" d="M26,236H104l18,44h38s4.5,2.5,0,7H43l-21-47s-1-4,4-4Z"/><g id="talk1"><path class="cls-16" d="M290,211s1-11,9-16,15.37-9.33,15.37-9.33c0,0,1.78-.96,2.81,.59s-1.41,3.33-1.41,3.33l-6,5.11s-1.93,2.3,2.67,2.89,9.78-.67,12.52-1.56,8.74-6.52,9.93-5.26,1.63,2.3-1.04,4.89c0,0,5.19-2.37,6-.96s.52,2.74-2.81,4.07-21.11,7.56-27.33,11.56-9.63,8.52-9.63,8.52l-10.07-7.85Z"/><path class="cls-16" d="M223.56,172.56l-14.89,25.33-22.33-17,1.44-23.89s34.56-5.44,35.78,15.56Z"/><path class="cls-5" d="M185,176s-29,41-29,71v41h65l3-21s16,21,29,21,16-7,20-13,33-53,33-53c0,0-5.5-17.5-23.5-12.5l-29,39s-18-49-68.5-72.5Z"/><g id="talkHead1"><path class="cls-16" d="M241.56,133s-.78,9.89-1.56,12.33c0,0,6.22,8.44,6,9.89l-4.78,4.22s2.33,4.67,.89,5.44-1.89,.89-1.89,.89c0,0,1.44,.22,1.22,1.22s-2.67,2.33-2.67,2.33c0,0,2.56,8.56-7.78,6.11s-45.78-25.89-45.78-25.89c0,0,3.78-36.44,24.11-32.89s23.44,4.11,32.22,16.33Z"/><path class="cls-18" d="M227,138.33l6.11,41.22-46.11-6s-14.22-5.78-14.44-19.33,18.89-36.89,25-42.56,23.22-4.22,23.22-4.22c0,0,18.11,3.56,23.22,24.89,0,0-6,4-17,6Z"/></g></g><path id="txtBalloon" class="cls-1" d="M367.56,97.15c0,26.76-21.69,48.44-48.44,48.44-13.19,0-25.15-5.27-33.88-13.82-1.42-1.39-1.23-1-11.6,2.56-2.17,.74,4.86-10.68,3.69-12.67-4.23-7.19-6.65-15.57-6.65-24.51,0-26.76,21.69-48.44,48.44-48.44s48.44,21.69,48.44,48.44Z"/><g id="talk2"><path id="neck" class="cls-12" d="M428.48,327.78l1.14,21.07s28.21,1.34,29.22-.16,1.01-25.16,1.01-25.16l-31.38,4.24Z"/><g id="talkHead2"><path id="face" class="cls-12" d="M414.64,296.44s.53-15.07,13.12-18.2c12.59-3.14,31.38-.66,37.38,4.91s11.51,35.44-4.34,40.92c-15.85,5.48-40.27,9.39-40.27,9.39,0,0-5.57,.06-5.74-3.62s.22-4.89-1.1-5.81,.3-3.02,.3-3.02c0,0-1.9-.88-1.75-1.43s1.32-2.6,1.32-2.6c0,0,.28-2.13-.82-2.82s-4.57-2.98-4.32-3.71,4.49-5.6,5.39-7.18,.85-6.83,.85-6.83Z"/><path id="hair" d="M423,282.16s-2.1-.05-2.44-2.12-.86-10.69,5.23-11.52,21.78,1.71,21.78,1.71c0,0,12.84,.07,21.57,10.12s8.86,19.85,7.36,27.95-13.52,18.91-16.66,19.36l-6.57-11.52s-.64-3.17,1.14-5.28c1.78-2.11,3.6-6.23,1.8-9.3s-6.9-4.19-9.25-1.5-3.35,6.46-3.35,6.46l-6.71-10.1s.68-7.75,2.31-8.93-.18-5.4-2.8-5.82-13.41,.51-13.41,.51Z"/></g><path class="cls-16" d="M505.33,505.74s-2.37,11.26-4.59,14.67-5.78,14.96-4.15,19.11,4.59,3.56,4.59,3.56c0,0-.15,9.19,3.26,9.78s3.85-2.07,3.85-2.07c0,0,5.19,.44,5.93-2.37,0,0,1.19,1.19,4.89-1.04s4-3.85,4-3.85c0,0,1.19-.59,.44-4.74s-5.48-29.33-4.15-31.56-14.07-1.48-14.07-1.48Z"/><path class="cls-16" d="M344.67,461.11s3.44,11.11,2.33,11.78-36.78,5.33-41.78,5.33-4.22-24,1.56-24.11,37.89,7,37.89,7Z"/><polygon class="cls-1" points="270.81 412.7 321.33 416.41 316.3 487.52 266.52 483.81 270.81 412.7"/><path class="cls-16" d="M343.67,455.78s-6.44,1.11-8.56,1.11-10.22-4.33-10.22-4.33c0,0,.78-1.33-7.33-1.56s-14.67-1.56-15.33-.67-2.78,1.67,2.89,4.78,16.67,6.22,16.67,6.22c0,0,2.11,5.67,6.78,4.89s16.44-2.44,16.56-4.56-1.44-5.89-1.44-5.89Z"/><path d="M428.89,344l31.44-4.89s1.22,13.89,12.56,17,17.33,7.78,22,14.89,36.89,74.44,36.89,74.44c0,0,1.56,5.7-.3,18.67s-7.81,52.56-7.81,52.56l-22-1.89v-62s1.33,0-2.33-5.67-6.89-13.11-6.89-13.11l-2.44,43.67h-79.67l-.33-11.78s-5.33,11.78-6.33,11.78h-62.22l-4.33-22.78,37.44-7.22s2.44-.44,4.89-5.56,16.11-49.56,24.78-61.44,23-23.22,24.11-27.11,.56-9.56,.56-9.56Z"/></g><g id="baclRec3"><g><path class="cls-1" d="M231.56,629.44v11.12c0,5.15-4.18,9.33-9.34,9.33H72.89c-5.16,0-9.33-4.18-9.33-9.33v-11.12H231.56Z"/><path class="cls-9" d="M231.56,398.56v230.88H63.56v-230.88c0-10.19,8.25-18.45,18.44-18.45H213.11c10.19,0,18.45,8.26,18.45,18.45Z"/></g></g><g id="txtBox"><g><polygon class="cls-1" points="217.33 349.89 217.33 410.78 133.93 410.78 117.48 410.78 105.33 410.78 105.33 349.89 217.33 349.89"/><polygon class="cls-1" points="133.93 410.78 117.48 427.96 117.48 410.78 133.93 410.78"/></g></g><g id="talk3"><path class="cls-11" d="M103.89,492.11l1.89,32.33-28.22-17.22,.67-24.44s19.33-3,25.67,9.33Z"/><g id="talkHead3"><path class="cls-11" d="M103.56,441s13.48,5.33,13.63,13.63,9.04,12.15,9.04,12.15c0,0,2.44,2.17,.61,4.11s-4.44,3.72-4.44,3.72c0,0,3.5,2.83,2.33,3.83s-.89,1.11-.89,1.11c0,0,.94,.33,.67,1.22s-1.83,2.28-1.78,2.83,1.72,6.83-2.39,10.33-14,2.22-14,2.22l-36.56-8.72s-20.15-17.41-12.67-28.96,11.7-19.7,27.56-20.81,18.89,3.33,18.89,3.33Z"/><path d="M84.56,473.78s-.56-7.56-7.67-7.56-6.89,7.33-6.56,9.56,8.33,8.89,8.33,8.89c0,0,2.56,17.11-3.78,13.56s-16.11-8.89-21-17-7.44-13.89-4-27,18.78-19.78,34-20.89,27.67-1.78,32.89,4.67,5.78,14.78-3.67,22.56-23.22,14.78-28.56,13.22Z"/></g><g id="leftPencil"><path class="cls-16" d="M134.37,571.52s11.56,5.33,13.93,1.48,8.89-36.44,8.89-36.44c0,0,2.07-4.15-4.44-10.44l-1.78-1.56s6.67-6.15,3.78-9.85-24.15,23.19-24.15,23.19c0,0,.74,30,3.78,33.63Z"/><path class="cls-8" d="M132.67,558.33s-15.11,58.89-5.11,63.78,22.67,3.63,23.33-3.41,3.26-55.41,3.26-55.41c0,0-11.56-4.07-21.48-4.96Z"/><g><path class="cls-15" d="M151.19,475.89c2.51,.67,2.11,3.78,2.11,3.78l-.05,.43-5.74-.54,.05-.34s1.11-4,3.63-3.33Z"/><polygon class="cls-3" points="153.25 480.1 152.76 484.25 147.02 483.57 147.51 479.56 153.25 480.1"/><polygon class="cls-13" points="152.76 484.25 146.11 540.67 140.11 539.78 147.02 483.57 152.76 484.25"/><polygon class="cls-2" points="146.11 540.67 142.98 547.04 140.8 546.5 140.11 539.78 146.11 540.67"/><polygon class="cls-6" points="142.98 547.04 141.22 550.61 140.8 546.5 142.98 547.04"/></g></g><path class="cls-4" d="M76.3,498.63s-34.96,44.15-34.96,131.56h122.07l37.04-20.44-13.04-26.67-32,14.22s-32.59-61.33-48.89-81.19l-30.22-17.48Z"/><path class="cls-16" d="M182.96,585.59s18.52-6.81,19.7-8.44,13.78-10.22,16.3-10.22,14.81-1.33,15.11-.3,1.22,2.28-1.61,3.17-10.76,3.22-10.76,3.94,27.04,.37,27.04,.37c0,0,2.37,.44,2.37,2.3s-14.44,3.63-14.44,3.63c0,0,10.37,.37,10.74,2.37s-6.67,9.93-13.93,10.89-21.26-3.63-24.59-1.78-20.44,12.81-20.44,12.81c0,0-13.41-10.44-5.48-18.74Z"/></g></svg>