<?xml-stylesheet type="text/css" href="../../css/SvgControl.css"?>
<svg id="peoples" xmlns="http://www.w3.org/2000/svg" viewBox="0 0 566 680"><defs><style>.cls-1{fill:#54272e;}.cls-2{fill:#31160b;}.cls-3{fill:#fff;}.cls-4{fill:#f7aebb;}.cls-5{fill:#9ac0e6;}.cls-6{fill:#ead3c6;}.cls-7{fill:#0f2036;}.cls-8{fill:#4f798e;}.cls-9{fill:#49a69c;}.cls-10{fill:#ac6c5f;}.cls-11{fill:#0b1521;}.cls-12{fill:#527b9f;}.cls-13{fill:#f05a2b;}.cls-14{fill:#3b9286;}.cls-15{fill:#f19021;}</style></defs><rect id="bg" class="cls-6" x="-15.44" y="-27" width="602.98" height="724"/><g id="women2"><path id="hair2" class="cls-1" d="M55.11,165.15s5.48,41.33,30.37,45.78c24.89,4.44,36.15-8.3,40.3-13.04s9.48-18.07-2.67-28-68-4.74-68-4.74Z"/><path id="face" class="cls-10" d="M119.85,115.52s-12.15-11.56-31.11-8.59-24,16.89-24,27.26,2.07,22.52,10.37,29.93,43.26,13.93,43.26,13.93c0,0,4.96-.59,4.69-4.09s-.22-4.5,.33-4.89,2.56-1.89,1.83-2.67-.72-1.83,.17-2.17,1.33-1.22,.67-2.11-1.39-2.06-1.28-2.89,1.5-3.11,3.56-3.33,2.89-1.61,1.06-3.22-4.78-8.28-4.72-10.28,4.22-19.98-4.81-26.87Z"/><path id="hair" class="cls-1" d="M55.11,165.15s-2.81-36.15,16-54.67,40-6.81,44-4.59,16,14.52,14.52,29.04-2.96,13.63-2.96,13.63c0,0-2.67-3.7-2.07-8.44s2.22-16.89-10.22-25.48c0,0-2.67,12.59-7.11,14.96s-7.11,6.67-7.41,9.63-3.11,2.81-4.44,.59-4-5.48-7.11-4-5.59,3.33-3.96,11.63-7.78,26.67-7.78,26.67c0,0-15.81,1.26-21.44-8.96Z"/><path id="neck" class="cls-10" d="M81.63,162.19l-10.22,25.33s27.7,13.63,28.74,10.81,6.22-33.48,6.22-33.48c0,0-17.19-4.89-24.74-2.67Z"/><path id="leftFoot" class="cls-10" d="M46.96,503.96l37.93-55.11s-40.89-34.37-48-20.74-90.67,217.48-90.67,217.48c0,0,39.7,29.04,48,23.7s-15.41-32.59-15.41-32.59L46.96,503.96Z"/><g id="rightFoot"><g><path class="cls-7" d="M242.67,669.22c0,5.11-2.45,6-2.45,6,0,0-54.44,.67-64.44,0-7.44-.49-8.11-7.87-7.97-15.55,2.61,.03,24.93,.22,36.63,.22,12.45,0,11.95-6.54,11.95-6.54l19.39,8.54s6.89,2.22,6.89,7.33Z"/><path class="cls-10" d="M216.39,653.35s.5,6.54-11.95,6.54c-11.7,0-34.02-.19-36.63-.22,.04-2.65,.19-5.33,.19-7.78,0-9.56-2.67-18.89-2.67-18.89l-52.44-150.67c3.11-10.22,40.67-14.89,40.67-14.89,0,0,36.22,154.45,40.44,165.12,4.22,10.66,17.56,18.66,17.56,18.66l4.83,2.13Z"/></g></g><path id="clothes" class="cls-3" d="M72.89,181.22s-17.11,19.33-19.78,34.67-7.11,83.56-7.11,83.56c0,0-67.33,116.22-59.33,188.22l179.56,2.67-52.44-187.56s9.33-44.89,9.33-50.22-.44-42-22.56-60.89l-27.67-10.44Z"/><path id="rightArm" class="cls-10" d="M58.37,298.93l1.04-82.96s1.48-16.74,17.04-16.74,17.93,14.37,17.93,14.37l-4.44,81.48,63.85,55.56s5.19,4.89,1.04,9.04-10.67,4.3-16,1.93-76-49.04-76-49.04c0,0-4.44-2.96-4.44-13.63Z"/><path class="cls-10" d="M154,353.11s24.11,2.89,25,6.89-3.33,4.33-3.33,4.33c0,0-2.22,17-8.44,15.89s-25.07-18.85-25.07-18.85"/></g><g id="men"><g id="head"><path id="neck-2" class="cls-4" d="M465.04,105.59l8,23.41s30.22-2.96,31.11-4.89-3.56-29.33-3.56-29.33l-35.56,10.81Z"/><path id="face-2" class="cls-4" d="M443.11,71.89s-2.22-17.56,11.78-23.56,36.22-6.67,44.22-1.33,20,38.89,2.67,48.22-44.89,18.44-44.89,18.44c0,0-6.44,1.11-7.33-3.11s-.67-5.7-2.37-6.52-.22-3.56-.22-3.56c0,0-2.37-.67-2.3-1.33s1.04-3.26,1.04-3.26c0,0-.07-2.52-1.48-3.11s-5.85-2.59-5.7-3.48,4.15-7.33,4.89-9.33-.3-8.07-.3-8.07Z"/><path id="hair-2" d="M450.11,53.78s-2.44,.33-3.22-2-3-12.22,3.89-14.33,25.56-2.11,25.56-2.11c0,0,14.89-2.33,26.89,7.67s14,21.33,13.78,31-12.11,24.44-15.67,25.56l-9.78-12.11s-1.33-3.56,.33-6.33,3-7.89,.33-11.11-8.78-3.56-11,0-2.67,8.11-2.67,8.11l-9.67-10.44s-.67-9.11,1-10.78-1.22-6.22-4.33-6.22-15.44,3.11-15.44,3.11Z"/></g><path class="cls-4" d="M550.44,345.44s1.11,6.89-1.56,10.44-8,18.22-4.44,21.11,4.44,2.44,4.67,5.78-.67,6,6.67,4.67,14.22-2.22,14.44-5.78,3.56-18.67-.22-22.44-1.78-11.56-1.78-11.56l-17.78-2.22Z"/><path class="cls-14" d="M466.22,151.67s10.22-15.11,16-9.78,18.22,.89,15.11,18.67-19.56,96-19.56,96l-88.89,80-14.67-22.67,80.44-86.22,11.56-76Z"/><path class="cls-9" d="M504.22,113.44s5.33,20.33,15.89,25.33,15.33,3.67,23,16.67,44.44,81.11,42.89,96.44-12.22,100.67-12.22,100.67l-23.33-.67,1.78-95.33s.89-9.11-3.33-15.11-7.78-12-7.78-12l-2.89,70.67-88.89-.67s-9.33-68.22-9.78-93.56,13.33-50.22,21.78-67.33c8.44-17.11,7.33-19.56,7.33-19.56l35.56-5.56Z"/><path id="rightLeg" class="cls-11" d="M535.78,290.56s24.44,36.67,15.56,89.33c0,0,9.11,80.22,13.56,93.56s79.11,157.33,79.11,157.33l-32.3,19.56-100.15-163.56-41.78-128s42.22-76.89,66-68.22Z"/><polygon id="leftFoot-2" class="cls-4" points="355.7 613 351.11 640.11 382.37 639.07 394.22 608.11 355.7 613"/><path id="leftLeg" class="cls-7" d="M450.22,286.33l-1.33,6.67-65.33,158.81-29.04,162.96,39.7,1.19,46.22-145.19,56.3-100.74s42.67-45.04,41.48-75.26-88-8.44-88-8.44Z"/><path id="leftFoot-3" d="M352.26,626.33l-2.22,18.67s.89,4-8,8.15-38.81,15.7-38.81,15.7c0,0-5.48,5.93-1.19,5.93h50.37s8.59-.3,9.78-2.52l.44,3.26h16.44s3.56-41.33,9.19-49.04l-36-.15Z"/></g><g id="women"><path id="rightArm-2" class="cls-3" d="M297.68,267s-2.06,21.35-5.42,27.81-38.45,70.97-38.45,70.97c0,0-1.55,11.87-4.9,11.35s-13.68,3.87-16,2.06-3.87,0-3.87-8.26,12.65-14.71,14.19-15.74,25.03-65.03,25.03-65.03c0,0,3.1-8.77,3.61-11.87s2.32-18.32,2.32-18.32"/><g id="leftFoot-4"><g><path class="cls-3" d="M333,624.78l-1.59,37.59c-56.4,13.83-51.55,.88-51.55,.88,6.51-1.88,12.47-3.56,14.92-4.14,6.55-1.55,5.22-3.74,5.22-3.74v-34.07c16.11-4.04,33,3.48,33,3.48Z"/><path class="cls-2" d="M331.41,662.37l-.52,12.41s-71.78,.66-75.67,.22,1.22-4.89,1.22-4.89c0,0,12.49-3.71,23.42-6.86,0,0-4.85,12.95,51.55-.88Z"/></g></g><g id="rightFoot-2"><g><path class="cls-2" d="M511.04,673.3c0,2.07-.6,2.14-.6,2.14l-76.22-.22-.22-11.11c-.03-.51-.06-1.03-.1-1.55h.03s18.81,4.44,35.03,5.92c16.23,1.48,16.55-5.63,16.55-5.63l14.64,4.82s10.89,3.55,10.89,5.63Z"/><path class="cls-3" d="M466.37,656.56l19.14,6.29s-.32,7.11-16.55,5.63c-16.22-1.48-35.03-5.92-35.03-5.92h-.03c-1.18-15.89-7.01-34.23-7.01-34.23,13.33-5.33,32.67-1.77,32.67-1.77,0,0,2.37,17.18,3.03,23.25,.67,6.08,3.78,6.75,3.78,6.75Z"/></g></g><path id="pants" class="cls-15" d="M307.11,264.56s-12.44,32-15.11,72,3.56,301.33,3.56,301.33h49.78l9.78-234.67,73.78,234.67,51.56,.89-85.33-315.56s-8-40-31.11-53.33-56.89-5.33-56.89-5.33Z"/><path id="leftArm" class="cls-3" d="M274.52,257.44l-3.85,22.22s-1.48,8-3.85,14.52-22.22,58.07-22.22,58.07c0,0,.59,1.48-5.33,4.74s-11.56,9.78-10.67,15.41,3.56,8.59,8,7.7,10.67-4.44,11.85-3.26,4.15-.3,4.15-2.96,1.78-10.37,6.22-16.89,32.89-60.74,32.89-60.74c0,0,3.56-8.3,3.85-11.56s2.07-20.44,2.07-20.44c0,0-3.56-6.22-23.11-6.81Z"/><path id="rightArm-3" class="cls-3" d="M390.07,261l47.41,98.96s2.67,10.52,2.89,13.41,2.22,6.3,5.19,10,5.78,7.78,7.63,7.56,1.41-2.74,.67-4.37-5.41-7.41-4.74-9.19,4.44,3.56,4.44,3.56c0,0,15.56,16.59,17.48,15.48s.52-4.81-.52-6.44,.52-2.96,2.15-1.78,1.85-1.56,1.93-2.59,.07-6-1.56-8.67-.81-7.56-6.59-10.3-14-10.15-14-10.15l-38.37-104.81s-16.59-2.22-24,9.33Z"/><path id="shirt" class="cls-13" d="M298.26,257.71l-.58,9.29s-2.52,6.58-12,4.65-10.65-3.29-11.81-6.19,3.87-25.94,3.48-38.13,2.71-34.45,14.9-41.81,24.1-5.81,24.1-5.81c0,0,59.71,1.35,68.81,9.48s17.23,35.61,17.23,35.61l12.58,28.26s.39,8.71-8.9,11.42-14.52,.19-14.52,.19l-11.03-18.97s-8.13,17.23-7.74,33.87-72.19,3.1-72.19,3.1c0,0,.58-22.84-2.32-24.97Z"/><g id="head-2"><path class="cls-3" d="M311.42,112s8.9-14.06,25.35-9.03,24.97,17.42,22.84,29.03-16.84,21.87-16.84,21.87l-23.03,16.06s-6.84,1.19-7.65-1.71-1.32-6.35-2.39-6.32-.94-1.68-.23-2-1.6-1-1.69-1.82,.53-5.03,.05-5.23-3.97-.77-4.31-1.65,2.56-6.87,3.05-8.32,.87-5.85,0-7.21-1.84-10.06-.58-14.13,5.42-9.55,5.42-9.55Z"/><path d="M309.16,141.42c.05,.08-2.7-.99-2.77-1.03-1.46-.83-7.85-3.61-7.16-15.06,.77-12.87,5.23-21.68,17.81-27.19s25.16-1.74,31.26,1.84,12.29,10.55,19.74,31.94,19.65,42.48,18.48,51.58-5.03,11.23-9.29,13.94-39.48,15.68-39.48,15.68c0,0-3.68,2.52-4.84-5.03s-5.13-28.35-6.1-28.35h-10.45s23.61-39.48,25.16-41.13,3.77-5.52,1.74-8.42-5.9-3.58-8.13-2.03-2.23,6.39-3.39,6.68-5.42-7.35-5.42-7.35c0,0-7.45-3.77-9.29-6.29s-3.58-8.61-3.39-9.1-7,4.29-7.84,12.58,1.93,14.3,3.35,16.77Z"/></g></g><g id="boy"><g id="head-3"><path id="neck-3" class="cls-4" d="M166.97,332.23l-.9,22.06s-27.61,.9-28.9-3.35,.39-24.52,.39-24.52c0,0,28.52,.52,29.42,5.81Z"/><g id="face-3"><path id="face-4" class="cls-4" d="M136,327c-6.72,12.9,10.59,10.82,23.23,11.42,10.87,.52,21.94-3.38,24.39-6.32,5.16-6.19,3.48-14.58,3.48-14.58,0,0,3.77-3.68,2.61-5.32s-6.42-6.77-5.71-9.19c0,0,5-28-29-26s-28,29-26,37,7,13,7,13"/><path id="hair-3" d="M148,325l-12,11s-18-13-16-31,8-16,8-16c0,0,1-13,18-18s31,1,35,6,11,19,3,26c0,0,.5-6.5-5.5-7.5s-11,1-11,1c0,0-1,9-8,13,0,0-9-3-13,4s1.5,11.5,1.5,11.5Z"/></g></g><path id="leftArm-2" class="cls-4" d="M139.74,351.97s8.32-1.55,12.58,4.84,1.16,14.13-4.45,22.84-15.87,24.97-15.87,24.97l14.32,29.03s11.03,2.71,9.68,7.35-4.84,15.29-13.74,11.03-6-12-6-12l-20.13-26.13s-4.65-6.58,.58-22.65c5.23-16.06,10.65-35.03,16.45-37.16s6.58-2.13,6.58-2.13Z"/><g id="leftLeg-2"><path id="leftLeg-3" class="cls-4" d="M164.52,542.61l14.71,110.52s-.19,21.68,1.74,21.68,44.13,1.16,45.68-.19,4.06-7.74-6.19-10.26-18.97-5.42-18.58-8.52-.19-111.87-.19-111.87c0,0-24-9.29-37.16-1.35Z"/><g id="leftFoot-5"><g><path class="cls-12" d="M220.95,664.45c10.44,2.55,7.88,9.06,6.3,10.43-1.57,1.38-44.52,.2-46.49,.2-.84,0-1.28-3.98-1.53-8.57,1,.07,33.42,2.13,33.8-4.07l.04-.12c.13,.03,.25,.07,.39,.11,2.31,.69,4.85,1.36,7.48,2.02Z"/><path class="cls-3" d="M213.08,662.33l-.04,.12c-.39,6.2-32.81,4.14-33.8,4.07-.32-6.2-.24-13.5-.24-13.5l-2.85-21.38h26.03c.01,13.47-.02,23.23-.13,24.13-.29,2.31,4.41,4.52,11.04,6.55Z"/></g></g></g><g id="rightLeg-2"><g><path class="cls-12" d="M152.32,663.19c13.55,2.91,13.74,10.07,12.78,11.62-.97,1.54-45.68,1.16-47.23,.19-.25-.16-.19-3.83,.09-9.85,1.95,.2,18.33,1.83,24.98,2.01,7.06,.19,7.64-4.36,7.64-4.36,.55,.13,1.13,.26,1.74,.39Z"/><path class="cls-4" d="M126.58,542.61l33.29,.2s-3.29,33.48-4.06,40.25c-.52,4.48-6.69,30.86-11.04,49.74l-24.71-1.83c2.63-38.52,6.52-88.36,6.52-88.36Z"/><path class="cls-3" d="M120.06,630.97l24.71,1.83c-2.24,9.68-3.99,17.4-4.25,19.17-.74,4.99-1.66,8.04,10.06,10.83,0,0-.58,4.55-7.64,4.36-6.65-.18-23.03-1.81-24.98-2.01,.38-8.08,1.16-20.41,2.1-34.18Z"/></g></g><path id="panth" class="cls-8" d="M138.77,445.06c.8-.01,54.77,0,54.77,0l8.9,102.39-38.52,.58s-.58-24.77-1.74-24.58-.77,12.19-1.55,15.29-.97,8.9-.97,8.9h-34.45s1.55-54.97,0-59.81,2.9-42.58,13.55-42.77Z"/><path id="shirt-2" class="cls-5" d="M150.45,346.55l17.29,3.35s19.87,18.06,24.13,57.94,1.94,40.39,1.94,40.39l-59.48,.39s-8.39-58.19-5.94-85.94c0,0,3.1-19.1,9.42-18.19s12.65,2.06,12.65,2.06Z"/><path id="rightArm-4" class="cls-4" d="M185.61,404.81l-38.52-10.84s-13.55-4.45-9.1-22.06c4.45-17.61,22.06-10.84,23.61-9.48s33.87,21.29,33.87,21.29l35.81-3.87s3.68-3.48,3.48-7.16,1.55-6.77,4.26-6,3.48,3.68,7.55,3.29,6.77-4.45,8.13-3.1,4.26,14.52-4.65,21.1-9.68,1.74-14.52,3.87-36.19,15.68-41.23,15.29-8.71-2.32-8.71-2.32Z"/></g></svg>