<?xml-stylesheet type="text/css" href="../../css/SvgControl.css"?>

<svg id="treeImg" xmlns="http://www.w3.org/2000/svg" viewBox="0 0 566 680"><defs><style>.cls-1{fill:#93d5dd;}.cls-2{fill:#fff;}.cls-3{fill:#4bba7c;}.cls-4{fill:#189a72;}.cls-5{fill:#33b55c;}.cls-6{fill:#176636;}

</style></defs><rect id="skyBg" class="cls-1" width="566" height="680"/><g id="leftBottomCloud"><circle class="cls-2" cx="45.19" cy="224.48" r="36"/><circle class="cls-2" cx="99.39" cy="224.48" r="36"/><circle class="cls-2" cx="153.58" cy="224.48" r="36"/><circle class="cls-2" cx="207.77" cy="224.48" r="36"/><circle class="cls-2" cx="261.97" cy="224.48" r="36"/></g><g id="rightBottomCloud"><circle class="cls-2" cx="814.39" cy="264.29" r="36"/><circle class="cls-2" cx="868.58" cy="264.29" r="36"/><circle class="cls-2" cx="922.77" cy="264.29" r="36"/><circle class="cls-2" cx="976.97" cy="264.29" r="36"/><circle class="cls-2" cx="1031.16" cy="264.29" r="36"/></g><g id="rightTopCloud"><circle class="cls-2" cx="638.55" cy="57.9" r="36"/><circle class="cls-2" cx="692.74" cy="57.9" r="36"/><circle class="cls-2" cx="746.94" cy="57.9" r="36"/><circle class="cls-2" cx="801.13" cy="57.9" r="36"/><circle class="cls-2" cx="855.32" cy="57.9" r="36"/></g><g id="backMountain"><polygon class="cls-3" points="96 251.5 381.52 681.11 8.53 681.36 96 251.5"/><polygon class="cls-4" points="96 251.5 8.53 681.36 -198 681.5 96 251.5"/></g><g id="frontTree"><polygon class="cls-5" points="507.48 329.13 721.16 681.39 567.87 681.39 233.03 681.39 269.03 555.97 223.35 555.97 309.29 328.35 262.06 329.13 370.84 30.68 555.48 329.13 507.48 329.13"/><polygon class="cls-6" points="370.84 30.68 262.06 329.13 309.29 328.35 223.35 555.97 269.03 555.97 233.03 681.39 62.32 681.39 141.29 555.97 94.84 555.97 234.77 327.97 187.35 327.97 370.84 30.68"/></g><g id="leftTopCloud"><circle class="cls-2" cx="181.84" cy="124.29" r="36"/><circle class="cls-2" cx="236.03" cy="124.29" r="36"/><circle class="cls-2" cx="290.23" cy="124.29" r="36"/><circle class="cls-2" cx="344.42" cy="124.29" r="36"/><circle class="cls-2" cx="398.61" cy="124.29" r="36"/></g></svg>